<svg width="12" height="12" viewBox="0 0 12 12" fill="none" xmlns="http://www.w3.org/2000/svg">
<path d="M11.7891 0.191969L11.808 0.210864C12.052 0.454942 12.052 0.85067 11.808 1.09475L6.90268 6.00003L11.808 10.9053C12.052 11.1494 12.052 11.5451 11.808 11.7892L11.7891 11.8081C11.545 12.0522 11.1493 12.0522 10.9052 11.8081L5.99991 6.90281L1.09463 11.8081C0.850548 12.0522 0.454819 12.0522 0.210742 11.8081L0.191847 11.7892C-0.0522304 11.5451 -0.0522304 11.1494 0.191847 10.9053L5.09713 6.00003L0.191847 1.09475C-0.0522304 0.85067 -0.0522304 0.454942 0.191847 0.210864L0.210742 0.191969C0.454819 -0.0521083 0.850548 -0.0521083 1.09463 0.191969L5.99991 5.09725L10.9052 0.191969C11.1493 -0.0521083 11.545 -0.0521083 11.7891 0.191969Z" fill="black"/>
</svg>
