<svg width="24" height="25" viewBox="0 0 24 25" fill="none" xmlns="http://www.w3.org/2000/svg">
<path d="M9.82795 0.5C12.4647 0.5 14.9376 1.53566 16.7894 3.41578C18.6572 5.25721 19.6923 7.73141 19.6923 10.3695C19.6923 12.6316 18.9312 14.7731 17.5282 16.5043L23.6735 22.6062C24.1058 23.0364 24.1103 23.7375 23.6781 24.1722C23.462 24.3907 23.1776 24.5 22.8932 24.5C22.6111 24.5 22.329 24.393 22.1129 24.1791L15.957 18.0668C14.2289 19.4508 12.0877 20.2026 9.82568 20.2026C7.19124 20.2026 4.7206 19.1829 2.87104 17.33C1.01919 15.4795 0 13.0076 0 10.3718C0 7.73596 1.01919 5.26631 2.86876 3.41351C4.71833 1.53566 7.18896 0.5 9.82568 0.5H9.82795ZM9.82568 2.71472C7.78501 2.71472 5.87402 3.51593 4.44305 4.97041C4.44078 4.97269 4.4385 4.97496 4.43623 4.97724C3.00299 6.41123 2.21356 8.32777 2.21356 10.3718C2.21356 12.4158 3.00299 14.3323 4.43623 15.764C5.86947 17.198 7.78501 17.9879 9.82795 17.9879C11.8453 17.9879 13.7384 17.2177 15.1655 15.8177C15.1805 15.7999 15.1963 15.7829 15.2128 15.7663C15.2329 15.746 15.2536 15.7266 15.2748 15.7082L15.2197 15.764C16.6802 14.3255 17.481 12.4135 17.481 10.3718C17.481 8.33005 16.6802 6.41578 15.2242 4.98179C13.7796 3.51593 11.8641 2.71472 9.82568 2.71472Z" fill="#D7D7D7"/>
</svg>
